<svg width="20" height="20" viewBox="0 0 20 20" fill="none" xmlns="http://www.w3.org/2000/svg">
<path d="M8.7191 4.42761C9.10218 3.10336 9.29372 2.44123 9.58898 2.27387C9.84388 2.12937 10.1559 2.12937 10.4109 2.27387C10.7061 2.44123 10.8977 3.10336 11.2807 4.42761L11.7808 6.15639C11.8839 6.51258 11.9354 6.69067 12.0404 6.82105C12.1331 6.93609 12.2547 7.02443 12.3927 7.07702C12.5492 7.13661 12.7345 7.13058 13.1051 7.11851L14.9038 7.05991C16.2816 7.01502 16.9705 6.99258 17.2209 7.22167C17.4371 7.41945 17.5335 7.71624 17.4749 8.00332C17.407 8.33585 16.8364 8.72262 15.6954 9.49617L14.2057 10.506C13.8988 10.7141 13.7454 10.8181 13.6538 10.9583C13.5731 11.082 13.5266 11.2249 13.5193 11.3724C13.5109 11.5397 13.5739 11.714 13.6999 12.0627L14.3115 13.7553C14.7799 15.0518 15.0142 15.7001 14.8737 16.009C14.7524 16.2758 14.4999 16.4592 14.2088 16.4921C13.8715 16.5303 13.3274 16.1072 12.2391 15.261L10.8183 14.1563C10.5256 13.9287 10.3793 13.8149 10.2177 13.7712C10.0751 13.7326 9.92477 13.7326 9.78218 13.7712C9.62057 13.8149 9.47421 13.9287 9.1815 14.1563L7.76075 15.261C6.67246 16.1072 6.12831 16.5303 5.79107 16.4921C5.49991 16.4592 5.24745 16.2758 5.12615 16.009C4.98566 15.7001 5.21989 15.0518 5.68835 13.7553L6.29991 12.0627C6.42591 11.714 6.48891 11.5397 6.48057 11.3724C6.47322 11.2249 6.42678 11.082 6.346 10.9583C6.25446 10.8181 6.10101 10.7141 5.79409 10.506L4.30447 9.49617C3.1634 8.72262 2.59287 8.33585 2.52494 8.00332C2.46629 7.71624 2.56272 7.41945 2.77891 7.22167C3.02933 6.99258 3.71824 7.01502 5.09606 7.05991L6.89476 7.11851C7.26535 7.13058 7.45065 7.13661 7.6071 7.07702C7.74515 7.02443 7.86674 6.93609 7.95941 6.82105C8.06444 6.69067 8.11596 6.51258 8.219 6.15639L8.7191 4.42761Z" fill="url(#paint0_linear_0_432)"/>
<defs>
<linearGradient id="paint0_linear_0_432" x1="17.4999" y1="9.99997" x2="1.66658" y2="9.99997" gradientUnits="userSpaceOnUse">
<stop offset="0.458564" stop-color="#1D1D1B" stop-opacity="0.2"/>
<stop offset="0.458664" stop-color="#FFEB2D"/>
</linearGradient>
</defs>
</svg>
