<svg width="50" height="56" viewBox="0 0 50 56" fill="none" xmlns="http://www.w3.org/2000/svg">
<path d="M28.9088 2.18894C26.4804 0.829009 23.5196 0.829007 21.0912 2.18894L4.09118 11.7089C1.56472 13.1238 0 15.7934 0 18.689V37.311C0 40.2066 1.56472 42.8762 4.09117 44.2911L21.0912 53.8111C23.5196 55.171 26.4804 55.171 28.9088 53.8111L45.9088 44.2911C48.4353 42.8762 50 40.2066 50 37.311V18.689C50 15.7934 48.4353 13.1238 45.9088 11.7089L28.9088 2.18894Z" fill="#00A88E"/>
<path d="M37.5 14H12.5V15.75H37.5V14Z" fill="#4D4D4F"/>
<path d="M29.4647 33.25C29.4647 32.2875 27.4647 31.5 25.0004 31.5C22.5361 31.5 20.5361 32.2875 20.5361 33.25C20.5361 34.2125 22.5361 35 25.0004 35C27.4647 35 29.4647 34.2125 29.4647 33.25Z" fill="#4D4D4F"/>
<path d="M37.5 15.75H12.5V33.25H37.5V15.75Z" fill="#6D6E71"/>
<path d="M35.7145 17.5H14.2859V31.5H35.7145V17.5Z" fill="#44ADE2"/>
<path d="M37.4994 41.125H26.7852V42H37.4994V41.125Z" fill="#6D6E71"/>
<path d="M37.4994 36.75H26.7852V41.125H37.4994V36.75Z" fill="#4D4D4F"/>
<path d="M35.7134 37.625H28.5706V40.25H35.7134V37.625Z" fill="#A5CF4C"/>
<path d="M24.9995 19.25L20.9817 21.455V25.83C20.9817 28.5513 24.9995 29.8463 24.9995 29.8463C24.9995 29.8463 29.0174 28.5513 29.0174 25.83V21.455L24.9995 19.25ZM28.1245 25.8213C28.1245 27.4925 25.812 28.5688 24.9995 28.9013C24.187 28.5688 21.8745 27.4925 21.8745 25.8213V21.9713L24.9995 20.2213L28.1245 21.9713V25.8213Z" fill="white"/>
<path d="M25 28H12.5V42H25V28Z" fill="#6D6E71"/>
<path d="M25 27.125H12.5V28H25V27.125Z" fill="#4D4D4F"/>
<path d="M24.1074 28.875H13.3931V40.25H24.1074V28.875Z" fill="#F04E45"/>
<path d="M18.7491 31.0364L16.0706 32.5064V35.4202C16.0706 37.2227 18.7491 38.0889 18.7491 38.0889C18.7491 38.0889 21.4277 37.2139 21.4277 35.4202V32.5064L18.7491 31.0364ZM20.5348 35.4114C20.5348 36.2252 19.4098 36.8639 18.7491 37.1614C18.0884 36.8814 16.9634 36.2427 16.9634 35.4114V33.0227L18.7491 32.0339L20.5348 33.0227V35.4114Z" fill="white"/>
</svg>
