<svg width="80" height="89" viewBox="0 0 80 89" fill="none" xmlns="http://www.w3.org/2000/svg">
<path d="M7.26444 19.3876L7.26444 19.3876L7.2587 19.391C4.00606 21.2937 2 24.8015 2 28.5914V60.4086C2 64.1935 4.00221 67.7199 7.26444 69.6124C7.26466 69.6125 7.26488 69.6126 7.2651 69.6128L34.7913 85.5927C38.0221 87.4689 41.9769 87.4691 45.2078 85.5932C45.2081 85.5931 45.2084 85.5929 45.2087 85.5927L72.7349 69.6258C75.9975 67.7334 78 64.2068 78 60.4217V28.5914C78 24.8063 75.9975 21.2797 72.7349 19.3872L45.2087 3.40729C45.2086 3.40724 45.2085 3.40719 45.2084 3.40714C41.9775 1.53096 38.0225 1.53095 34.7916 3.40714C34.7915 3.40719 34.7914 3.40724 34.7913 3.40729L7.26444 19.3876Z" fill="#00A88E" stroke="white" stroke-width="4"/>
<path d="M58 23.5999H22V24.9063H58V23.5999Z" fill="#4D4D4F"/>
<path d="M46.4287 52.3459C46.4287 50.9088 43.5487 49.733 40.0001 49.733C36.4515 49.733 33.5715 50.9088 33.5715 52.3459C33.5715 53.783 36.4515 54.9588 40.0001 54.9588C43.5487 54.9588 46.4287 53.783 46.4287 52.3459Z" fill="#4D4D4F"/>
<path d="M58 24.9068H22V52.3467H58V24.9068Z" fill="#6D6E71"/>
<path d="M55.4287 27.5198H24.5715V49.733H55.4287V27.5198Z" fill="#44ADE2"/>
<path d="M58.0002 64.1065H42.5717V65.413H58.0002V64.1065Z" fill="#6D6E71"/>
<path d="M58.0002 57.5731H42.5717V64.1054H58.0002V57.5731Z" fill="#4D4D4F"/>
<path d="M56.7141 58.8796H43.857V62.799H56.7141V58.8796Z" fill="#A5CF4C"/>
<path d="M39.9999 30.7211L34.2142 34.0139V40.5342C34.2142 44.5848 39.9999 46.5317 39.9999 46.5317C39.9999 46.5317 45.7856 44.5979 45.7856 40.5342V34.0139L39.9999 30.7211ZM44.4999 40.5342C44.4999 43.0299 41.1699 44.6371 39.9999 45.1336C38.8299 44.6371 35.4999 43.0299 35.4999 40.5342V34.7848L39.9999 32.2238L44.4999 34.7848V40.5342Z" fill="white"/>
<path d="M40 43.2H22V65.4132H40V43.2Z" fill="#6D6E71"/>
<path d="M40 41.8932H22V43.1996H40V41.8932Z" fill="#4D4D4F"/>
<path d="M38.7144 44.5067H23.2858V62.7999H38.7144V44.5067Z" fill="#F04E45"/>
<path d="M30.9999 48.3871L27.1428 50.5823V54.9335C27.1428 57.6383 30.9999 58.9319 30.9999 58.9319C30.9999 58.9319 34.857 57.6383 34.857 54.9335V50.5823L30.9999 48.3871ZM33.5713 54.9335C33.5713 56.1487 31.9513 57.1157 30.9999 57.5338C30.0485 57.1157 28.4285 56.1618 28.4285 54.9335V51.3533L30.9999 49.8898L33.5713 51.3533V54.9335Z" fill="white"/>
</svg>
