<svg width="156" height="30" viewBox="0 0 156 30" fill="none" xmlns="http://www.w3.org/2000/svg">
<path d="M70.3108 15.1095C70.3108 21.001 66.7171 23.7862 62.2192 23.7862H59.4703V20.2512H62.005C64.7181 20.2512 66.5265 18.7874 66.5265 15.1095C66.5265 11.4673 64.8162 9.64592 61.9245 9.64592C59.14 9.64592 57.1498 11.3601 57.1498 15.038V29.8211H53.4014V6.57499H57.1498V8.5749H57.6853C58.9348 6.89665 60.7821 6.14649 62.7099 6.14649C66.851 6.14649 70.3108 9.14599 70.3108 15.1095ZM45.6757 13.5738L43.1767 13.3238C41.2132 13.1453 40.1779 12.6097 40.1779 11.467C40.1779 10.1101 41.4989 9.32455 43.3909 9.32455C45.3544 9.32455 46.6038 10.2529 46.7109 11.5741H50.3165C50.1738 8.21761 47.5678 6.14649 43.4267 6.14649C39.2498 6.14649 36.4295 8.36042 36.4295 11.6099C36.4295 14.3237 38.1431 16.0733 42.0344 16.4662L44.5689 16.7161C46.1041 16.8588 47.1394 17.1802 47.1394 18.6443C47.1394 19.9656 46.1754 20.9296 43.6409 20.9296C41.3068 20.9296 40.1567 19.8702 39.7532 18.4502H35.8524C36.2411 21.6962 38.9672 24.2147 43.6409 24.2147C48.0319 24.2147 50.8877 21.8937 50.8877 18.4659C50.8877 15.4306 48.8886 13.8952 45.6757 13.5738ZM84.8284 18.4502C84.2403 19.801 82.8352 20.8226 80.8414 20.8226C78.0926 20.8226 76.0578 19.0371 76.0578 15.1807C76.0578 11.5027 77.9497 9.46736 80.877 9.46736C83.4832 9.46736 84.9825 11.0385 85.1254 13.3952H78.3781V16.1093H88.8024V14.3237C88.8024 9.36024 85.518 6.14649 80.8414 6.14649C76.4862 6.14649 72.3092 9.1103 72.3092 15.1807C72.3092 21.2509 76.4862 24.2147 80.8414 24.2147C84.825 24.2147 87.6656 21.7603 88.5481 18.4502H84.8284ZM25.7377 6.14649C21.6324 6.14649 18.5622 8.28926 18.2052 11.5741H22.2391C22.5248 10.3603 23.6314 9.46764 25.7377 9.46764C28.451 9.46764 29.3434 10.8962 29.3434 12.6456V18.5372C27.8084 20.2871 26.0234 21.1081 24.2383 21.1081C22.382 21.1081 21.0969 20.2155 21.0969 18.6089C21.0969 17.0731 22.0964 16.1093 24.0242 16.1093H27.0229V13.3952H23.9171C19.6331 13.3952 17.2414 15.538 17.2414 18.8229C17.2414 21.8937 19.5617 24.2147 23.3816 24.2147C25.5235 24.2147 27.4156 23.358 28.8079 22.3222H29.3434V23.7862H33.0918V12.2883C33.0918 8.03905 30.2002 6.14649 25.7377 6.14649ZM0.304688 23.7862H4.05314V0.218994H0.304688V23.7862ZM16.048 6.57499H11.4786L6.01659 13.7526V16.0022L11.6213 23.7862H16.2622L9.69363 14.8593L16.048 6.57499ZM151.554 6.57499L148.484 13.3952C147.734 15.038 147.021 16.6446 146.806 17.7161H146.27C146.056 16.6446 145.307 15.0736 144.557 13.4312L141.487 6.57499H137.346L144.557 22.0366L140.987 29.8211H144.986L155.695 6.57499H151.554ZM136.517 6.57499H131.947L126.485 13.7526V16.0022L132.09 23.7862H136.731L130.162 14.8593L136.517 6.57499ZM113.048 13.5738L110.549 13.3238C108.585 13.1453 107.55 12.6097 107.55 11.467C107.55 10.1101 108.871 9.32455 110.763 9.32455C112.726 9.32455 113.976 10.2529 114.083 11.5741H117.688C117.546 8.21761 114.94 6.14649 110.799 6.14649C106.622 6.14649 103.802 8.36042 103.802 11.6099C103.802 14.3237 105.515 16.0733 109.406 16.4662L111.941 16.7161C113.476 16.8588 114.511 17.1802 114.511 18.6443C114.511 19.9656 113.547 20.9296 111.013 20.9296C108.679 20.9296 107.529 19.8702 107.125 18.4502H103.224C103.613 21.6962 106.339 24.2147 111.013 24.2147C115.404 24.2147 118.26 21.8937 118.26 18.4659C118.26 15.4306 116.261 13.8952 113.048 13.5738ZM120.773 23.7862H124.522V0.218994H120.773V23.7862ZM96.0552 8.5749H95.5197V6.57499H91.7713V23.7862H95.5197V14.7878C95.5197 11.717 96.9383 9.93155 99.7323 9.93155H102.105V6.14649H100.732C98.1394 6.14649 97.0376 7.12447 96.0552 8.5749Z" fill="white"/>
</svg>
